<?xml version="1.0" standalone="no"?><!DOCTYPE svg PUBLIC "-//W3C//DTD SVG 1.1//EN" "http://www.w3.org/Graphics/SVG/1.1/DTD/svg11.dtd"><svg t="1647396352095" class="icon" viewBox="0 0 1056 1024" version="1.1" xmlns="http://www.w3.org/2000/svg" p-id="2320" xmlns:xlink="http://www.w3.org/1999/xlink" width="206.25" height="200"><defs><style type="text/css"></style></defs><path d="M1014.93056 759.04c-56.32 29.44-348.16 149.44-410.56 181.76-62.08 32.32-96.64 32-145.92 8.64-48.96-23.36-359.68-148.8-415.68-175.68-27.84-13.44-42.56-24.64-42.56-35.2v-106.88s404.48-88 469.76-111.36c65.28-23.36 88-24.32 143.36-3.84 55.68 20.48 387.84 80.32 442.88 100.48v105.28c0 10.24-12.8 21.76-41.28 36.8z" fill="#A41E11" p-id="2321"></path><path d="M1014.93056 652.48c-56.32 29.44-348.16 149.44-410.56 181.76-62.08 32.32-96.64 32-145.92 8.64-48.96-23.36-359.68-149.12-415.68-175.68-56-26.88-57.28-45.12-2.24-66.56 55.04-21.44 363.84-142.72 429.12-166.08 65.28-23.36 88-24.32 143.36-3.84 55.68 20.48 345.6 136 400.64 155.84 55.36 19.84 57.6 36.48 1.28 65.92z" fill="#D82C20" p-id="2322"></path><path d="M1014.93056 584.96c-56.32 29.44-348.16 149.44-410.56 181.76-62.08 32.32-96.64 32-145.92 8.64-48.96-23.36-359.68-148.8-415.68-175.68-27.84-13.44-42.56-24.64-42.56-35.2V457.6s404.48-88 469.76-111.36c65.28-23.36 88-24.32 143.36-3.84 55.68 20.48 387.84 80.32 442.88 100.48v105.28c0 10.24-12.8 22.08-41.28 36.8z" fill="#A41E11" p-id="2323"></path><path d="M1014.93056 478.4c-56.32 29.44-348.16 149.44-410.56 181.76-62.08 32.32-96.64 32-145.92 8.64-48.96-23.36-359.68-149.12-415.68-175.68-56-26.88-57.28-45.12-2.24-66.56 55.04-21.44 363.84-142.72 429.12-166.08 65.28-23.36 88-24.32 143.36-3.84 55.68 20.48 345.6 136 400.64 155.84 55.36 19.84 57.6 36.48 1.28 65.92z" fill="#D82C20" p-id="2324"></path><path d="M1014.93056 404.48c-56.32 29.44-348.16 149.44-410.56 181.76-62.08 32.32-96.64 32-145.92 8.64-48.96-23.36-359.68-149.12-415.68-175.68C14.93056 405.76 0.21056 394.56 0.21056 384V277.12s404.48-88 469.76-111.36c65.28-23.36 88-24.32 143.36-3.84C669.01056 182.08 1001.17056 242.24 1056.21056 262.08v105.28c0 10.56-12.8 22.08-41.28 37.12z" fill="#A41E11" p-id="2325"></path><path d="M1014.93056 297.6c-56.32 29.44-348.16 149.44-410.56 181.76-62.08 32.32-96.64 32-145.92 8.64S98.77056 339.2 42.77056 312.32c-56-26.88-57.28-45.12-2.24-66.56 55.04-21.44 363.84-142.72 429.12-166.08 65.28-23.36 88-24.32 143.36-3.84C669.01056 96 959.25056 211.52 1014.29056 231.68c54.72 20.16 56.96 36.8 0.64 65.92z" fill="#D82C20" p-id="2326"></path><path d="M666.45056 194.88l-91.52 9.6-20.48 49.28-32.96-55.04-105.6-9.6 78.72-28.16-23.68-43.84 73.92 28.8 69.44-22.72-18.56 45.12zM549.01056 433.92l-170.56-70.72 244.48-37.44z" fill="#FFFFFF" p-id="2327"></path><path d="M181.65056 272.96a130.88 50.56 0 1 0 261.76 0 130.88 50.56 0 1 0-261.76 0Z" fill="#FFFFFF" p-id="2328"></path><path d="M774.61056 208.32l144.96 57.28-144.64 57.28z" fill="#7A0C00" p-id="2329"></path><path d="M614.61056 271.68l160-63.36 0.32 114.56-15.68 6.08z" fill="#AD2115" p-id="2330"></path></svg>